Coordinates
version=1
nRows=5
nColumns=65
inDegrees=yes

Units are S.I. units (second, meters, Newtons, ...)
If the header above contains a line with 'inDegrees', this indicates whether rotational values are in degrees (yes) or radians (no).

endheader
time	pelvis_tilt	pelvis_list	pelvis_rotation	pelvis_tx	pelvis_ty	pelvis_tz	hip_flexion_r	hip_adduction_r	hip_rotation_r	knee_angle_r	knee_flexion_r_beta	hip_flexion_l	hip_adduction_l	hip_rotation_l	knee_flexion_l	knee_flexion_l_beta	L5_S1_Flex_Ext	L5_S1_Lat_Bending	L5_S1_axial_rotation	L1_T12_Flex_Ext	L1_T12_Lat_Bending	L1_T12_axial_rotation	C7_T1_Flex_Ext	C7_T1_Lat_Bending	C7_T1_axial_rotation	C1_Skull_Flex_Ext	C1_Skull_Lat_Bending	C1_Skull_axial_rotation	stnclv_protraction_r	stnclv_elevation_r	arm_flex_r	arm_add_r	arm_rot_r	stnclv_protraction_l	stnclv_elevation_l	arm_flex_l	arm_add_l	arm_rot_l	elbow_flex_r	pro_sup_r	wrist_flex_r	wrist_dev_r	elbow_flex_l	pro_sup_l	wrist_flex_l	wrist_dev_l	ankle_angle_r	subtalar_angle_r	ankle_internal_rotation_r	chopart_flexion_r	chopart_inversion_r	chopart_internal_rotation_r	metatarsophalangeal_flexion_r	metatarsophalangeal_inversion_r	metatarsophalangeal_internal_rotation_r	ankle_flexion_l	ankle_inversion_l	ankle_internal_rotation_l	chopart_flexion_l	chopart_inversion_l	chopart_internal_rotation_l	metatarsophalangeal_flexion_l	metatarsophalangeal_inversion_l	metatarsophalangeal_internal_rotation_l
      5.24500000	     -4.59769445	     21.30726887	    235.30981961	      1.89919004	      0.69900253	     -0.16863074	      9.23806339	    -31.91974260	    -16.99849474	     52.38032866	      0.91420920	     82.20260621	     -1.09466895	    -33.64426466	     92.95678649	      1.62240199	    -22.80223472	      2.61525241	      2.48838471	     -7.78695486	     15.27263730	      2.48838471	      0.00000000	      0.00000000	      0.00000000	      0.00000000	      0.00000000	      0.00000000	     -5.91858705	      1.26655668	     10.24008111	    -23.74726599	      2.66491908	     -2.78273707	      5.14523541	    -27.69616248	    -21.69398720	      0.19696153	    123.23516660	     29.62842861	    -34.59541781	    -10.87460189	     66.86750635	     23.61314351	    -13.35188239	     -3.79994388	     11.51894174	      6.06578706	     -8.53592543	      0.00000000	     25.29446412	      0.00000000	      7.82530280	      0.00000000	      0.00000000	      5.46181430	      4.54367896	    -13.51433858	      0.00000000	      4.37987489	      0.00000000	     10.92458239	      0.00000000	      0.00000000
      5.25000000	     -4.63870798	     22.67165526	    235.99511233	      1.88767773	      0.70129901	     -0.15470438	      7.88122988	    -30.29681506	    -17.68284303	     50.42793734	      0.88013354	     82.54800541	     -0.97474801	    -34.11204114	     91.43163173	      1.59578301	    -21.59907138	      2.60138946	      2.89424071	     -7.05731298	     15.45803901	      2.89424071	      0.00000000	      0.00000000	      0.00000000	      0.00000000	      0.00000000	      0.00000000	     -6.29486990	      1.76835220	      8.87140985	    -23.90674964	      4.05596446	     -3.14219935	      6.83673527	    -28.30169262	    -20.97234993	      0.76296078	    124.84415348	     30.04035895	    -34.69812250	    -11.16961604	     69.44677080	     23.85273960	    -13.27771875	     -4.23328790	      9.73359798	      6.50583437	     -8.01325370	      0.00000000	     25.16951492	      0.00000000	      7.92956976	      0.00000000	      0.00000000	      4.88735692	      4.59577162	    -13.17267030	      0.00000000	      4.27199444	      0.00000000	     10.91849287	      0.00000000	      0.00000000
      5.25500000	     -5.44782879	     23.88622823	    237.26015240	      1.87573605	      0.70458624	     -0.13984059	      5.62219316	    -27.89313068	    -18.52855716	     47.95836652	      0.83703140	     82.31193650	     -0.88438714	    -34.11834375	     90.23773219	      1.57494554	    -20.62589059	      2.77420666	      3.32877805	     -6.58625647	     16.10803501	      3.32877805	      0.00000000	      0.00000000	      0.00000000	      0.00000000	      0.00000000	      0.00000000	     -6.55425825	      1.82698335	      7.34480339	    -24.73535494	      4.74039155	     -2.88197027	      8.09937645	    -29.27368544	    -20.51199698	      0.93169949	    126.19633483	     30.83855497	    -35.16543757	    -11.65583438	     72.24735123	     24.32562843	    -12.85650496	     -4.87768358	      7.72375721	      6.91730645	     -7.66443216	      0.00000000	     24.41575594	      0.00000000	      8.61851597	      0.00000000	      0.00000000	      4.37372447	      4.49785039	    -12.64873414	      0.00000000	      3.99473691	      0.00000000	     11.02758278	      0.00000000	      0.00000000
      5.26000000	     -5.56494320	     25.03823674	    237.92936532	      1.86392100	      0.70773016	     -0.12494678	      4.27529235	    -26.13469166	    -18.48966439	     45.72715508	      0.79808941	     82.17232633	     -0.92037454	    -34.78841409	     88.89371340	      1.55148798	    -19.51277547	      2.58970117	      3.61772187	     -6.00030769	     16.23371852	      3.61772187	      0.00000000	      0.00000000	      0.00000000	      0.00000000	      0.00000000	      0.00000000	     -7.01823360	      2.06070616	      5.70723094	    -24.86377152	      5.83348402	     -3.31587618	      9.57331092	    -29.73290538	    -19.83280588	      1.20869481	    126.75138636	     31.24698216	    -35.17104584	    -11.87317803	     74.56405429	     24.48622636	    -12.76371455	     -5.28989170	      5.33547969	      7.32646962	     -7.20508860	      0.00000000	     24.25444602	      0.00000000	      8.70455964	      0.00000000	      0.00000000	      3.83945356	      4.63727328	    -12.27621223	      0.00000000	      3.94124442	      0.00000000	     11.02814631	      0.00000000	      0.00000000
      5.26500000	     -6.66418495	     25.97946655	    239.39017193	      1.85196647	      0.71179094	     -0.10916276	      1.92719524	    -23.45022960	    -18.52239036	     42.99584980	      0.75041914	     81.39370173	     -0.92660416	    -34.81281055	     87.93594851	      1.53477183	    -19.16919475	      2.82202415	      3.87502801	     -4.97507969	     16.78119293	      3.87502801	      0.00000000	      0.00000000	      0.00000000	      0.00000000	      0.00000000	      0.00000000	     -6.60764132	      2.03943649	      2.97714376	    -25.15447321	      4.81807133	     -1.07757701	      9.96924263	    -32.96455940	    -18.12335091	     -2.52126649	    127.22697614	     35.27466293	    -36.04990814	    -13.02217186	     78.06618180	     25.49349833	     -9.92968555	     -7.25476779	      2.83799108	      9.04319528	     -6.98338615	      0.00000000	     21.70257243	      0.00000000	     11.95816411	      0.00000000	      0.00000000	      3.43924047	      4.90442881	    -11.94377153	      0.00000000	      3.32073607	      0.00000000	     11.70280875	      0.00000000	      0.00000000
